<svg width="69" height="64" viewBox="0 0 69 64" fill="none" xmlns="http://www.w3.org/2000/svg">
	<path fill-rule="evenodd" clip-rule="evenodd" d="M67.1351 2.7913C67.1351 1.96402 66.1307 1.54974 65.5435 2.13469L36.4781 31.0797C35.3856 32.1676 33.6144 32.1676 32.5219 31.0797L3.45662 2.13471C2.86923 1.54974 1.86486 1.96404 1.86486 2.7913V51.2363C1.86486 56.8776 6.45696 60.5222 12.1216 60.5222H56.8784C62.5431 60.5222 67.1351 56.8776 67.1351 51.2363V2.7913ZM64.2246 0.821502C65.9869 -0.933406 69 0.309502 69 2.7913V51.2363C69 57.9031 63.5731 63.3078 56.8784 63.3078H12.1216C5.42704 63.3078 0 57.9031 0 51.2363V2.7913C0 0.309499 3.01308 -0.933398 4.77528 0.821505L33.8406 29.7665C34.2048 30.1292 34.7952 30.1292 35.1594 29.7665L64.2246 0.821502Z" fill="#555568" />
</svg>
